<?xml version="1.0" encoding="UTF-8"?>
<svg xmlns="http://www.w3.org/2000/svg" xmlns:xlink="http://www.w3.org/1999/xlink" width="105.3pt" height="53.4pt" viewBox="0 0 105.3 53.4" version="1.1">
<defs>
<clipPath id="clip1">
  <path d="M 55 46 L 96 46 L 96 53.398438 L 55 53.398438 Z M 55 46 "/>
</clipPath>
<clipPath id="clip2">
  <path d="M 95 48 L 105.300781 48 L 105.300781 53 L 95 53 Z M 95 48 "/>
</clipPath>
</defs>
<g id="surface1">
<path style=" stroke:none;fill-rule:evenodd;fill:rgb(6.272888%,16.479492%,51.367188%);fill-opacity:1;" d="M 4.261719 49.355469 C 4.261719 49.820313 4.199219 50.210938 4.078125 50.542969 C 3.957031 50.875 3.785156 51.144531 3.558594 51.351563 C 3.332031 51.558594 3.054688 51.710938 2.730469 51.8125 C 2.40625 51.90625 2.019531 51.957031 1.574219 51.957031 L 0.367188 51.957031 C 0.28125 51.957031 0.207031 51.933594 0.148438 51.882813 C 0.0898438 51.832031 0.0625 51.75 0.0625 51.632813 L 0.0625 47.226563 C 0.0625 47.113281 0.0898438 47.027344 0.148438 46.980469 C 0.207031 46.929688 0.28125 46.902344 0.367188 46.902344 L 1.664063 46.902344 C 2.113281 46.902344 2.496094 46.957031 2.808594 47.0625 C 3.121094 47.167969 3.386719 47.324219 3.601563 47.53125 C 3.816406 47.734375 3.980469 47.992188 4.09375 48.292969 C 4.207031 48.601563 4.261719 48.953125 4.261719 49.355469 Z M 3.199219 49.390625 C 3.199219 49.152344 3.171875 48.929688 3.113281 48.722656 C 3.058594 48.515625 2.96875 48.335938 2.84375 48.1875 C 2.722656 48.039063 2.5625 47.917969 2.367188 47.832031 C 2.175781 47.75 1.921875 47.707031 1.605469 47.707031 L 1.085938 47.707031 L 1.085938 51.144531 L 1.621094 51.144531 C 1.902344 51.144531 2.140625 51.109375 2.332031 51.035156 C 2.523438 50.957031 2.683594 50.851563 2.8125 50.707031 C 2.941406 50.558594 3.039063 50.375 3.101563 50.15625 C 3.167969 49.9375 3.199219 49.683594 3.199219 49.390625 Z M 8.570313 50.042969 C 8.570313 50.34375 8.527344 50.613281 8.453125 50.859375 C 8.375 51.105469 8.253906 51.316406 8.097656 51.492188 C 7.9375 51.667969 7.738281 51.804688 7.5 51.902344 C 7.257813 52 6.980469 52.042969 6.660156 52.042969 C 6.347656 52.042969 6.078125 52 5.851563 51.917969 C 5.621094 51.832031 5.429688 51.707031 5.28125 51.542969 C 5.128906 51.375 5.015625 51.175781 4.945313 50.9375 C 4.871094 50.699219 4.835938 50.425781 4.835938 50.117188 C 4.835938 49.820313 4.875 49.550781 4.953125 49.300781 C 5.035156 49.058594 5.152344 48.847656 5.3125 48.667969 C 5.46875 48.496094 5.667969 48.359375 5.90625 48.261719 C 6.144531 48.164063 6.425781 48.117188 6.746094 48.117188 C 7.058594 48.117188 7.328125 48.160156 7.558594 48.242188 C 7.785156 48.328125 7.976563 48.453125 8.125 48.617188 C 8.277344 48.78125 8.386719 48.984375 8.460938 49.222656 C 8.53125 49.457031 8.570313 49.738281 8.570313 50.042969 Z M 7.558594 50.082031 C 7.558594 49.914063 7.542969 49.757813 7.515625 49.613281 C 7.488281 49.46875 7.441406 49.335938 7.378906 49.234375 C 7.3125 49.125 7.226563 49.042969 7.117188 48.984375 C 7.007813 48.925781 6.875 48.894531 6.710938 48.894531 C 6.5625 48.894531 6.4375 48.917969 6.328125 48.976563 C 6.21875 49.027344 6.128906 49.105469 6.058594 49.207031 C 5.988281 49.3125 5.933594 49.4375 5.898438 49.578125 C 5.863281 49.726563 5.847656 49.890625 5.847656 50.074219 C 5.847656 50.246094 5.859375 50.402344 5.890625 50.550781 C 5.917969 50.695313 5.964844 50.820313 6.027344 50.925781 C 6.09375 51.035156 6.179688 51.117188 6.289063 51.175781 C 6.398438 51.234375 6.53125 51.261719 6.691406 51.261719 C 6.84375 51.261719 6.972656 51.234375 7.082031 51.179688 C 7.191406 51.125 7.28125 51.050781 7.351563 50.949219 C 7.421875 50.847656 7.472656 50.726563 7.507813 50.578125 C 7.539063 50.4375 7.558594 50.269531 7.558594 50.082031 Z M 11.984375 51.269531 C 11.984375 51.332031 11.980469 51.394531 11.976563 51.441406 C 11.972656 51.484375 11.96875 51.523438 11.960938 51.554688 C 11.957031 51.582031 11.949219 51.613281 11.9375 51.625 C 11.929688 51.652344 11.910156 51.675781 11.878906 51.707031 C 11.847656 51.734375 11.792969 51.773438 11.71875 51.816406 C 11.640625 51.855469 11.554688 51.894531 11.460938 51.929688 C 11.363281 51.960938 11.257813 51.992188 11.144531 52.011719 C 11.03125 52.035156 10.914063 52.042969 10.796875 52.042969 C 10.527344 52.042969 10.289063 52 10.082031 51.917969 C 9.875 51.832031 9.703125 51.707031 9.5625 51.550781 C 9.421875 51.386719 9.316406 51.1875 9.242188 50.953125 C 9.171875 50.71875 9.136719 50.449219 9.136719 50.148438 C 9.136719 49.800781 9.179688 49.5 9.265625 49.242188 C 9.355469 48.992188 9.476563 48.78125 9.632813 48.613281 C 9.789063 48.445313 9.972656 48.324219 10.1875 48.242188 C 10.398438 48.160156 10.632813 48.121094 10.890625 48.121094 C 10.996094 48.121094 11.097656 48.125 11.195313 48.148438 C 11.296875 48.167969 11.390625 48.191406 11.476563 48.222656 C 11.566406 48.25 11.640625 48.289063 11.710938 48.328125 C 11.78125 48.367188 11.828125 48.402344 11.859375 48.429688 C 11.886719 48.457031 11.90625 48.484375 11.917969 48.5 C 11.929688 48.519531 11.941406 48.542969 11.945313 48.578125 C 11.953125 48.609375 11.957031 48.648438 11.960938 48.691406 C 11.964844 48.738281 11.96875 48.792969 11.96875 48.859375 C 11.96875 49.011719 11.953125 49.117188 11.929688 49.179688 C 11.902344 49.238281 11.867188 49.269531 11.828125 49.269531 C 11.78125 49.269531 11.734375 49.25 11.6875 49.210938 C 11.636719 49.179688 11.578125 49.136719 11.511719 49.09375 C 11.441406 49.050781 11.363281 49.007813 11.269531 48.972656 C 11.175781 48.9375 11.0625 48.917969 10.933594 48.917969 C 10.675781 48.917969 10.480469 49.015625 10.347656 49.210938 C 10.210938 49.410156 10.144531 49.699219 10.144531 50.078125 C 10.144531 50.265625 10.160156 50.429688 10.195313 50.574219 C 10.226563 50.71875 10.277344 50.832031 10.34375 50.933594 C 10.410156 51.03125 10.492188 51.101563 10.59375 51.152344 C 10.695313 51.199219 10.8125 51.222656 10.945313 51.222656 C 11.078125 51.222656 11.195313 51.203125 11.292969 51.164063 C 11.390625 51.121094 11.476563 51.078125 11.546875 51.027344 C 11.621094 50.980469 11.683594 50.933594 11.734375 50.894531 C 11.78125 50.851563 11.824219 50.832031 11.859375 50.832031 C 11.882813 50.832031 11.902344 50.835938 11.917969 50.851563 C 11.933594 50.867188 11.945313 50.890625 11.953125 50.925781 C 11.964844 50.957031 11.96875 51 11.976563 51.058594 C 11.980469 51.113281 11.984375 51.183594 11.984375 51.269531 Z M 16 51.824219 C 16 51.851563 15.992188 51.875 15.980469 51.894531 C 15.964844 51.910156 15.945313 51.929688 15.910156 51.941406 C 15.878906 51.953125 15.835938 51.960938 15.78125 51.96875 C 15.730469 51.976563 15.664063 51.980469 15.582031 51.980469 C 15.496094 51.980469 15.425781 51.976563 15.371094 51.96875 C 15.320313 51.960938 15.277344 51.953125 15.246094 51.941406 C 15.214844 51.929688 15.191406 51.910156 15.179688 51.894531 C 15.167969 51.875 15.160156 51.851563 15.160156 51.824219 L 15.160156 51.417969 C 14.964844 51.625 14.769531 51.785156 14.570313 51.890625 C 14.371094 51.996094 14.167969 52.042969 13.953125 52.042969 C 13.714844 52.042969 13.511719 52.007813 13.347656 51.929688 C 13.1875 51.851563 13.054688 51.746094 12.953125 51.609375 C 12.855469 51.472656 12.78125 51.316406 12.738281 51.136719 C 12.695313 50.957031 12.675781 50.738281 12.675781 50.472656 L 12.675781 48.335938 C 12.675781 48.316406 12.683594 48.289063 12.695313 48.273438 C 12.710938 48.25 12.738281 48.234375 12.773438 48.222656 C 12.8125 48.207031 12.863281 48.199219 12.925781 48.195313 C 12.992188 48.1875 13.070313 48.183594 13.164063 48.183594 C 13.261719 48.183594 13.339844 48.1875 13.402344 48.195313 C 13.464844 48.199219 13.515625 48.207031 13.550781 48.222656 C 13.589844 48.234375 13.617188 48.25 13.632813 48.273438 C 13.648438 48.289063 13.65625 48.316406 13.65625 48.335938 L 13.65625 50.308594 C 13.65625 50.492188 13.667969 50.625 13.691406 50.726563 C 13.714844 50.824219 13.75 50.90625 13.796875 50.972656 C 13.847656 51.042969 13.90625 51.097656 13.980469 51.132813 C 14.054688 51.167969 14.144531 51.191406 14.242188 51.191406 C 14.367188 51.191406 14.492188 51.148438 14.617188 51.054688 C 14.746094 50.960938 14.878906 50.832031 15.023438 50.65625 L 15.023438 48.335938 C 15.023438 48.316406 15.03125 48.289063 15.042969 48.273438 C 15.058594 48.25 15.085938 48.234375 15.121094 48.222656 C 15.160156 48.207031 15.210938 48.199219 15.273438 48.195313 C 15.335938 48.1875 15.414063 48.183594 15.511719 48.183594 C 15.609375 48.183594 15.6875 48.1875 15.75 48.195313 C 15.8125 48.199219 15.859375 48.207031 15.898438 48.222656 C 15.933594 48.234375 15.960938 48.25 15.976563 48.273438 C 15.992188 48.289063 16 48.316406 16 48.335938 Z M 22.53125 51.824219 C 22.53125 51.851563 22.523438 51.875 22.507813 51.894531 C 22.492188 51.910156 22.464844 51.929688 22.429688 51.941406 C 22.394531 51.953125 22.34375 51.960938 22.28125 51.96875 C 22.21875 51.976563 22.136719 51.980469 22.042969 51.980469 C 21.945313 51.980469 21.863281 51.976563 21.800781 51.96875 C 21.738281 51.960938 21.6875 51.953125 21.652344 51.941406 C 21.613281 51.929688 21.585938 51.910156 21.570313 51.894531 C 21.558594 51.875 21.550781 51.851563 21.550781 51.824219 L 21.550781 49.757813 C 21.550781 49.640625 21.539063 49.535156 21.515625 49.4375 C 21.496094 49.335938 21.460938 49.257813 21.417969 49.1875 C 21.371094 49.121094 21.3125 49.066406 21.242188 49.03125 C 21.175781 48.992188 21.09375 48.972656 20.996094 48.972656 C 20.878906 48.972656 20.761719 49.019531 20.640625 49.109375 C 20.519531 49.203125 20.390625 49.332031 20.25 49.507813 L 20.25 51.824219 C 20.25 51.851563 20.242188 51.875 20.226563 51.894531 C 20.210938 51.910156 20.183594 51.929688 20.148438 51.941406 C 20.109375 51.953125 20.058594 51.960938 19.996094 51.96875 C 19.933594 51.976563 19.855469 51.980469 19.761719 51.980469 C 19.664063 51.980469 19.585938 51.976563 19.523438 51.96875 C 19.460938 51.960938 19.410156 51.953125 19.375 51.941406 C 19.335938 51.929688 19.308594 51.910156 19.292969 51.894531 C 19.277344 51.875 19.269531 51.851563 19.269531 51.824219 L 19.269531 49.757813 C 19.269531 49.640625 19.257813 49.535156 19.234375 49.4375 C 19.214844 49.335938 19.179688 49.257813 19.136719 49.1875 C 19.09375 49.121094 19.035156 49.066406 18.964844 49.03125 C 18.894531 48.992188 18.8125 48.972656 18.71875 48.972656 C 18.597656 48.972656 18.480469 49.019531 18.359375 49.109375 C 18.238281 49.203125 18.109375 49.332031 17.972656 49.507813 L 17.972656 51.824219 C 17.972656 51.851563 17.964844 51.875 17.949219 51.894531 C 17.933594 51.910156 17.90625 51.929688 17.871094 51.941406 C 17.832031 51.953125 17.78125 51.960938 17.71875 51.96875 C 17.65625 51.976563 17.578125 51.980469 17.480469 51.980469 C 17.382813 51.980469 17.304688 51.976563 17.242188 51.96875 C 17.179688 51.960938 17.128906 51.953125 17.09375 51.941406 C 17.054688 51.929688 17.027344 51.910156 17.011719 51.894531 C 16.996094 51.875 16.988281 51.851563 16.988281 51.824219 L 16.988281 48.335938 C 16.988281 48.316406 16.992188 48.289063 17.007813 48.273438 C 17.019531 48.25 17.042969 48.234375 17.078125 48.222656 C 17.113281 48.207031 17.15625 48.199219 17.210938 48.195313 C 17.261719 48.1875 17.328125 48.183594 17.410156 48.183594 C 17.492188 48.183594 17.5625 48.1875 17.617188 48.195313 C 17.671875 48.199219 17.714844 48.207031 17.742188 48.222656 C 17.773438 48.234375 17.796875 48.25 17.808594 48.273438 C 17.820313 48.289063 17.828125 48.316406 17.828125 48.335938 L 17.828125 48.742188 C 18.019531 48.535156 18.214844 48.375 18.402344 48.273438 C 18.597656 48.167969 18.796875 48.117188 19.003906 48.117188 C 19.148438 48.117188 19.277344 48.132813 19.390625 48.164063 C 19.503906 48.191406 19.609375 48.234375 19.699219 48.289063 C 19.785156 48.347656 19.863281 48.414063 19.929688 48.492188 C 19.996094 48.570313 20.050781 48.65625 20.09375 48.75 C 20.195313 48.644531 20.300781 48.542969 20.398438 48.460938 C 20.5 48.382813 20.601563 48.320313 20.695313 48.269531 C 20.792969 48.21875 20.890625 48.179688 20.992188 48.15625 C 21.085938 48.125 21.1875 48.117188 21.289063 48.117188 C 21.519531 48.117188 21.714844 48.15625 21.875 48.234375 C 22.035156 48.3125 22.164063 48.417969 22.261719 48.554688 C 22.355469 48.6875 22.425781 48.84375 22.46875 49.023438 C 22.511719 49.203125 22.53125 49.394531 22.53125 49.59375 Z M 26.714844 49.980469 C 26.714844 50.101563 26.6875 50.1875 26.632813 50.246094 C 26.582031 50.304688 26.507813 50.332031 26.414063 50.332031 L 24.292969 50.332031 C 24.292969 50.480469 24.3125 50.617188 24.34375 50.734375 C 24.382813 50.855469 24.4375 50.957031 24.511719 51.042969 C 24.589844 51.125 24.6875 51.195313 24.808594 51.238281 C 24.933594 51.28125 25.078125 51.304688 25.246094 51.304688 C 25.417969 51.304688 25.570313 51.292969 25.699219 51.269531 C 25.828125 51.242188 25.941406 51.210938 26.039063 51.183594 C 26.132813 51.15625 26.210938 51.125 26.273438 51.105469 C 26.335938 51.078125 26.386719 51.066406 26.425781 51.066406 C 26.449219 51.066406 26.46875 51.070313 26.484375 51.078125 C 26.5 51.085938 26.511719 51.105469 26.523438 51.125 C 26.53125 51.152344 26.542969 51.183594 26.546875 51.230469 C 26.550781 51.273438 26.550781 51.324219 26.550781 51.390625 C 26.550781 51.449219 26.550781 51.496094 26.546875 51.539063 C 26.542969 51.578125 26.539063 51.613281 26.535156 51.640625 C 26.53125 51.667969 26.523438 51.695313 26.511719 51.710938 C 26.5 51.734375 26.488281 51.75 26.46875 51.769531 C 26.453125 51.789063 26.40625 51.8125 26.332031 51.84375 C 26.253906 51.875 26.160156 51.90625 26.042969 51.9375 C 25.925781 51.960938 25.792969 51.992188 25.640625 52.011719 C 25.488281 52.035156 25.328125 52.042969 25.15625 52.042969 C 24.847656 52.042969 24.574219 52.007813 24.339844 51.929688 C 24.109375 51.851563 23.914063 51.734375 23.757813 51.574219 C 23.601563 51.414063 23.484375 51.210938 23.40625 50.972656 C 23.332031 50.730469 23.292969 50.445313 23.292969 50.121094 C 23.292969 49.8125 23.332031 49.53125 23.414063 49.285156 C 23.496094 49.035156 23.613281 48.824219 23.765625 48.652344 C 23.917969 48.476563 24.105469 48.34375 24.328125 48.25 C 24.546875 48.164063 24.792969 48.117188 25.070313 48.117188 C 25.363281 48.117188 25.613281 48.160156 25.816406 48.246094 C 26.023438 48.332031 26.195313 48.453125 26.328125 48.605469 C 26.460938 48.757813 26.558594 48.9375 26.621094 49.144531 C 26.683594 49.351563 26.714844 49.578125 26.714844 49.824219 Z M 25.761719 49.699219 C 25.769531 49.425781 25.714844 49.207031 25.597656 49.050781 C 25.476563 48.890625 25.292969 48.8125 25.046875 48.8125 C 24.921875 48.8125 24.8125 48.832031 24.722656 48.882813 C 24.628906 48.929688 24.550781 48.992188 24.492188 49.070313 C 24.429688 49.152344 24.382813 49.246094 24.347656 49.351563 C 24.316406 49.457031 24.296875 49.578125 24.292969 49.699219 Z M 30.851563 51.824219 C 30.851563 51.851563 30.84375 51.875 30.828125 51.894531 C 30.8125 51.910156 30.785156 51.929688 30.75 51.941406 C 30.714844 51.953125 30.664063 51.960938 30.601563 51.96875 C 30.535156 51.976563 30.457031 51.980469 30.363281 51.980469 C 30.269531 51.980469 30.1875 51.976563 30.125 51.96875 C 30.058594 51.960938 30.007813 51.953125 29.972656 51.941406 C 29.9375 51.929688 29.910156 51.910156 29.894531 51.894531 C 29.878906 51.875 29.871094 51.851563 29.871094 51.824219 L 29.871094 49.832031 C 29.871094 49.667969 29.859375 49.535156 29.835938 49.4375 C 29.808594 49.335938 29.773438 49.257813 29.726563 49.1875 C 29.679688 49.121094 29.621094 49.066406 29.546875 49.03125 C 29.472656 48.992188 29.386719 48.972656 29.285156 48.972656 C 29.160156 48.972656 29.035156 49.019531 28.90625 49.109375 C 28.78125 49.203125 28.648438 49.332031 28.507813 49.507813 L 28.507813 51.824219 C 28.507813 51.851563 28.5 51.875 28.484375 51.894531 C 28.46875 51.910156 28.441406 51.929688 28.40625 51.941406 C 28.367188 51.953125 28.316406 51.960938 28.253906 51.96875 C 28.191406 51.976563 28.113281 51.980469 28.015625 51.980469 C 27.921875 51.980469 27.839844 51.976563 27.777344 51.96875 C 27.714844 51.960938 27.664063 51.953125 27.628906 51.941406 C 27.589844 51.929688 27.5625 51.910156 27.546875 51.894531 C 27.53125 51.875 27.523438 51.851563 27.523438 51.824219 L 27.523438 48.335938 C 27.523438 48.316406 27.53125 48.289063 27.542969 48.273438 C 27.558594 48.25 27.578125 48.234375 27.613281 48.222656 C 27.648438 48.207031 27.691406 48.199219 27.746094 48.195313 C 27.796875 48.1875 27.867188 48.183594 27.945313 48.183594 C 28.03125 48.183594 28.097656 48.1875 28.152344 48.195313 C 28.207031 48.199219 28.25 48.207031 28.28125 48.222656 C 28.3125 48.234375 28.332031 48.25 28.34375 48.273438 C 28.355469 48.289063 28.363281 48.316406 28.363281 48.335938 L 28.363281 48.742188 C 28.558594 48.535156 28.753906 48.375 28.953125 48.273438 C 29.152344 48.167969 29.359375 48.117188 29.574219 48.117188 C 29.8125 48.117188 30.011719 48.15625 30.175781 48.234375 C 30.335938 48.3125 30.46875 48.417969 30.570313 48.554688 C 30.667969 48.6875 30.742188 48.84375 30.785156 49.023438 C 30.832031 49.203125 30.851563 49.417969 30.851563 49.667969 Z M 33.804688 51.480469 C 33.804688 51.597656 33.796875 51.683594 33.785156 51.742188 C 33.769531 51.804688 33.75 51.847656 33.726563 51.875 C 33.703125 51.898438 33.667969 51.917969 33.625 51.941406 C 33.578125 51.957031 33.527344 51.976563 33.464844 51.992188 C 33.402344 52 33.335938 52.015625 33.265625 52.023438 C 33.195313 52.03125 33.121094 52.035156 33.046875 52.035156 C 32.851563 52.035156 32.683594 52.011719 32.539063 51.957031 C 32.394531 51.910156 32.277344 51.832031 32.183594 51.734375 C 32.089844 51.625 32.023438 51.5 31.976563 51.34375 C 31.933594 51.1875 31.910156 51 31.910156 50.789063 L 31.910156 49 L 31.492188 49 C 31.445313 49 31.40625 48.972656 31.378906 48.910156 C 31.355469 48.851563 31.339844 48.75 31.339844 48.605469 C 31.339844 48.53125 31.34375 48.460938 31.351563 48.414063 C 31.359375 48.363281 31.367188 48.320313 31.378906 48.289063 C 31.390625 48.261719 31.410156 48.238281 31.429688 48.226563 C 31.449219 48.210938 31.472656 48.207031 31.496094 48.207031 L 31.910156 48.207031 L 31.910156 47.429688 C 31.910156 47.402344 31.917969 47.375 31.933594 47.359375 C 31.945313 47.335938 31.972656 47.320313 32.011719 47.308594 C 32.046875 47.292969 32.097656 47.28125 32.164063 47.277344 C 32.226563 47.269531 32.304688 47.265625 32.398438 47.265625 C 32.496094 47.265625 32.574219 47.269531 32.640625 47.277344 C 32.703125 47.28125 32.753906 47.292969 32.789063 47.308594 C 32.828125 47.320313 32.851563 47.335938 32.867188 47.359375 C 32.882813 47.375 32.890625 47.402344 32.890625 47.429688 L 32.890625 48.207031 L 33.648438 48.207031 C 33.675781 48.207031 33.699219 48.210938 33.71875 48.226563 C 33.738281 48.238281 33.753906 48.261719 33.765625 48.289063 C 33.777344 48.320313 33.789063 48.363281 33.796875 48.414063 C 33.804688 48.460938 33.804688 48.53125 33.804688 48.605469 C 33.804688 48.75 33.792969 48.851563 33.765625 48.910156 C 33.738281 48.972656 33.703125 49 33.652344 49 L 32.890625 49 L 32.890625 50.640625 C 32.890625 50.832031 32.921875 50.972656 32.980469 51.066406 C 33.042969 51.164063 33.148438 51.207031 33.300781 51.207031 C 33.351563 51.207031 33.398438 51.207031 33.441406 51.199219 C 33.484375 51.1875 33.519531 51.179688 33.554688 51.167969 C 33.585938 51.15625 33.613281 51.144531 33.636719 51.132813 C 33.65625 51.125 33.675781 51.121094 33.695313 51.121094 C 33.710938 51.121094 33.726563 51.125 33.742188 51.132813 C 33.753906 51.144531 33.765625 51.164063 33.773438 51.191406 C 33.78125 51.21875 33.789063 51.25 33.796875 51.300781 C 33.804688 51.347656 33.804688 51.40625 33.804688 51.480469 Z M 42.273438 51.816406 C 42.273438 51.84375 42.265625 51.867188 42.253906 51.886719 C 42.238281 51.90625 42.210938 51.925781 42.171875 51.9375 C 42.136719 51.949219 42.085938 51.957031 42.023438 51.96875 C 41.960938 51.976563 41.882813 51.980469 41.785156 51.980469 C 41.691406 51.980469 41.613281 51.976563 41.550781 51.96875 C 41.488281 51.957031 41.4375 51.949219 41.402344 51.9375 C 41.367188 51.925781 41.339844 51.90625 41.324219 51.886719 C 41.308594 51.867188 41.300781 51.84375 41.300781 51.816406 L 41.300781 47.703125 L 41.292969 47.703125 L 39.828125 51.8125 C 39.816406 51.847656 39.800781 51.875 39.777344 51.898438 C 39.753906 51.917969 39.722656 51.9375 39.679688 51.949219 C 39.640625 51.957031 39.589844 51.96875 39.527344 51.976563 C 39.464844 51.980469 39.390625 51.980469 39.300781 51.980469 C 39.210938 51.980469 39.136719 51.976563 39.074219 51.972656 C 39.011719 51.960938 38.960938 51.953125 38.921875 51.941406 C 38.878906 51.925781 38.847656 51.910156 38.824219 51.886719 C 38.800781 51.867188 38.785156 51.835938 38.777344 51.8125 L 37.363281 47.703125 L 37.355469 47.703125 L 37.355469 51.816406 C 37.355469 51.84375 37.347656 51.867188 37.332031 51.886719 C 37.320313 51.910156 37.292969 51.925781 37.253906 51.9375 C 37.214844 51.949219 37.164063 51.957031 37.105469 51.96875 C 37.042969 51.976563 36.964844 51.980469 36.867188 51.980469 C 36.773438 51.980469 36.695313 51.976563 36.632813 51.96875 C 36.570313 51.957031 36.519531 51.949219 36.484375 51.9375 C 36.445313 51.925781 36.417969 51.910156 36.402344 51.886719 C 36.390625 51.867188 36.382813 51.84375 36.382813 51.816406 L 36.382813 47.3125 C 36.382813 47.179688 36.417969 47.078125 36.488281 47.007813 C 36.558594 46.9375 36.652344 46.902344 36.769531 46.902344 L 37.441406 46.902344 C 37.5625 46.902344 37.664063 46.910156 37.75 46.933594 C 37.835938 46.953125 37.910156 46.984375 37.972656 47.03125 C 38.035156 47.074219 38.085938 47.136719 38.128906 47.207031 C 38.171875 47.285156 38.207031 47.375 38.238281 47.484375 L 39.332031 50.496094 L 39.347656 50.496094 L 40.480469 47.492188 C 40.515625 47.382813 40.550781 47.289063 40.59375 47.210938 C 40.632813 47.140625 40.679688 47.078125 40.730469 47.03125 C 40.785156 46.984375 40.847656 46.953125 40.921875 46.933594 C 40.996094 46.914063 41.082031 46.902344 41.175781 46.902344 L 41.867188 46.902344 C 41.9375 46.902344 42 46.910156 42.050781 46.929688 C 42.101563 46.949219 42.140625 46.976563 42.171875 47.011719 C 42.207031 47.042969 42.230469 47.085938 42.246094 47.140625 C 42.265625 47.191406 42.273438 47.25 42.273438 47.3125 Z M 46.285156 51.832031 C 46.285156 51.875 46.273438 51.902344 46.246094 51.917969 C 46.21875 51.941406 46.179688 51.957031 46.121094 51.960938 C 46.066406 51.976563 45.984375 51.980469 45.875 51.980469 C 45.757813 51.980469 45.671875 51.976563 45.617188 51.960938 C 45.566406 51.957031 45.527344 51.941406 45.503906 51.917969 C 45.484375 51.902344 45.472656 51.875 45.472656 51.832031 L 45.472656 51.558594 C 45.328125 51.707031 45.164063 51.832031 44.984375 51.917969 C 44.796875 52 44.59375 52.042969 44.371094 52.042969 C 44.183594 52.042969 44.015625 52.023438 43.859375 51.976563 C 43.707031 51.925781 43.570313 51.855469 43.457031 51.761719 C 43.34375 51.664063 43.257813 51.542969 43.195313 51.40625 C 43.132813 51.265625 43.101563 51.101563 43.101563 50.914063 C 43.101563 50.707031 43.140625 50.535156 43.21875 50.386719 C 43.300781 50.234375 43.417969 50.113281 43.578125 50.011719 C 43.734375 49.917969 43.929688 49.84375 44.164063 49.792969 C 44.398438 49.75 44.671875 49.726563 44.980469 49.726563 L 45.320313 49.726563 L 45.320313 49.515625 C 45.320313 49.40625 45.308594 49.3125 45.285156 49.230469 C 45.265625 49.148438 45.226563 49.078125 45.175781 49.023438 C 45.125 48.96875 45.058594 48.929688 44.976563 48.902344 C 44.890625 48.875 44.785156 48.863281 44.660156 48.863281 C 44.496094 48.863281 44.347656 48.882813 44.21875 48.917969 C 44.09375 48.953125 43.976563 48.996094 43.878906 49.039063 C 43.78125 49.082031 43.699219 49.125 43.632813 49.160156 C 43.5625 49.195313 43.511719 49.210938 43.46875 49.210938 C 43.441406 49.210938 43.414063 49.207031 43.390625 49.1875 C 43.371094 49.167969 43.351563 49.144531 43.335938 49.109375 C 43.324219 49.074219 43.3125 49.035156 43.304688 48.984375 C 43.296875 48.933594 43.292969 48.875 43.292969 48.820313 C 43.292969 48.738281 43.296875 48.675781 43.3125 48.625 C 43.324219 48.582031 43.351563 48.539063 43.386719 48.5 C 43.421875 48.460938 43.488281 48.417969 43.578125 48.375 C 43.667969 48.332031 43.777344 48.289063 43.898438 48.25 C 44.019531 48.207031 44.15625 48.179688 44.296875 48.15625 C 44.441406 48.125 44.59375 48.117188 44.746094 48.117188 C 45.019531 48.117188 45.253906 48.144531 45.445313 48.199219 C 45.640625 48.25 45.800781 48.332031 45.925781 48.445313 C 46.050781 48.554688 46.140625 48.699219 46.199219 48.871094 C 46.257813 49.042969 46.285156 49.25 46.285156 49.492188 Z M 45.320313 50.34375 L 44.945313 50.34375 C 44.785156 50.34375 44.652344 50.355469 44.539063 50.375 C 44.425781 50.402344 44.335938 50.4375 44.265625 50.484375 C 44.195313 50.53125 44.144531 50.585938 44.109375 50.65625 C 44.078125 50.722656 44.0625 50.792969 44.0625 50.882813 C 44.0625 51.027344 44.109375 51.144531 44.203125 51.226563 C 44.292969 51.3125 44.421875 51.351563 44.585938 51.351563 C 44.722656 51.351563 44.851563 51.316406 44.96875 51.246094 C 45.082031 51.175781 45.199219 51.074219 45.320313 50.9375 Z M 50.59375 51.824219 C 50.59375 51.851563 50.585938 51.875 50.570313 51.894531 C 50.554688 51.910156 50.527344 51.929688 50.492188 51.941406 C 50.457031 51.953125 50.40625 51.960938 50.339844 51.96875 C 50.277344 51.976563 50.199219 51.980469 50.105469 51.980469 C 50.007813 51.980469 49.929688 51.976563 49.867188 51.96875 C 49.800781 51.960938 49.75 51.953125 49.714844 51.941406 C 49.679688 51.929688 49.652344 51.910156 49.636719 51.894531 C 49.621094 51.875 49.613281 51.851563 49.613281 51.824219 L 49.613281 49.832031 C 49.613281 49.667969 49.601563 49.535156 49.574219 49.4375 C 49.550781 49.335938 49.515625 49.257813 49.46875 49.1875 C 49.421875 49.121094 49.363281 49.066406 49.285156 49.03125 C 49.214844 48.992188 49.125 48.972656 49.027344 48.972656 C 48.902344 48.972656 48.777344 49.019531 48.648438 49.109375 C 48.523438 49.203125 48.386719 49.332031 48.25 49.507813 L 48.25 51.824219 C 48.25 51.851563 48.242188 51.875 48.226563 51.894531 C 48.210938 51.910156 48.183594 51.929688 48.148438 51.941406 C 48.109375 51.953125 48.058594 51.960938 47.996094 51.96875 C 47.933594 51.976563 47.855469 51.980469 47.757813 51.980469 C 47.660156 51.980469 47.582031 51.976563 47.519531 51.96875 C 47.457031 51.960938 47.40625 51.953125 47.371094 51.941406 C 47.332031 51.929688 47.304688 51.910156 47.289063 51.894531 C 47.273438 51.875 47.265625 51.851563 47.265625 51.824219 L 47.265625 48.335938 C 47.265625 48.316406 47.273438 48.289063 47.285156 48.273438 C 47.296875 48.25 47.320313 48.234375 47.355469 48.222656 C 47.390625 48.207031 47.433594 48.199219 47.488281 48.195313 C 47.539063 48.1875 47.605469 48.183594 47.6875 48.183594 C 47.769531 48.183594 47.839844 48.1875 47.894531 48.195313 C 47.949219 48.199219 47.992188 48.207031 48.023438 48.222656 C 48.050781 48.234375 48.074219 48.25 48.085938 48.273438 C 48.097656 48.289063 48.105469 48.316406 48.105469 48.335938 L 48.105469 48.742188 C 48.296875 48.535156 48.496094 48.375 48.691406 48.273438 C 48.890625 48.167969 49.101563 48.117188 49.316406 48.117188 C 49.554688 48.117188 49.753906 48.15625 49.917969 48.234375 C 50.078125 48.3125 50.210938 48.417969 50.3125 48.554688 C 50.410156 48.6875 50.484375 48.84375 50.527344 49.023438 C 50.570313 49.203125 50.59375 49.417969 50.59375 49.667969 Z M 54.527344 51.832031 C 54.527344 51.875 54.515625 51.902344 54.488281 51.917969 C 54.460938 51.941406 54.421875 51.957031 54.367188 51.960938 C 54.308594 51.976563 54.226563 51.980469 54.117188 51.980469 C 54 51.980469 53.914063 51.976563 53.863281 51.960938 C 53.808594 51.957031 53.769531 51.941406 53.746094 51.917969 C 53.726563 51.902344 53.714844 51.875 53.714844 51.832031 L 53.714844 51.558594 C 53.570313 51.707031 53.40625 51.832031 53.226563 51.917969 C 53.042969 52 52.835938 52.042969 52.613281 52.042969 C 52.429688 52.042969 52.257813 52.023438 52.105469 51.976563 C 51.949219 51.925781 51.816406 51.855469 51.703125 51.761719 C 51.589844 51.664063 51.5 51.542969 51.4375 51.40625 C 51.375 51.265625 51.34375 51.101563 51.34375 50.914063 C 51.34375 50.707031 51.382813 50.535156 51.460938 50.386719 C 51.542969 50.234375 51.660156 50.113281 51.820313 50.011719 C 51.976563 49.917969 52.171875 49.84375 52.40625 49.792969 C 52.640625 49.75 52.914063 49.726563 53.222656 49.726563 L 53.5625 49.726563 L 53.5625 49.515625 C 53.5625 49.40625 53.550781 49.3125 53.53125 49.230469 C 53.507813 49.148438 53.472656 49.078125 53.421875 49.023438 C 53.371094 48.96875 53.300781 48.929688 53.21875 48.902344 C 53.132813 48.875 53.027344 48.863281 52.902344 48.863281 C 52.738281 48.863281 52.59375 48.882813 52.460938 48.917969 C 52.335938 48.953125 52.21875 48.996094 52.121094 49.039063 C 52.023438 49.082031 51.941406 49.125 51.875 49.160156 C 51.808594 49.195313 51.753906 49.210938 51.710938 49.210938 C 51.683594 49.210938 51.65625 49.207031 51.636719 49.1875 C 51.613281 49.167969 51.59375 49.144531 51.582031 49.109375 C 51.566406 49.074219 51.554688 49.035156 51.546875 48.984375 C 51.539063 48.933594 51.535156 48.875 51.535156 48.820313 C 51.535156 48.738281 51.542969 48.675781 51.554688 48.625 C 51.566406 48.582031 51.59375 48.539063 51.628906 48.5 C 51.664063 48.460938 51.730469 48.417969 51.820313 48.375 C 51.910156 48.332031 52.019531 48.289063 52.140625 48.25 C 52.261719 48.207031 52.398438 48.179688 52.542969 48.15625 C 52.683594 48.125 52.835938 48.117188 52.988281 48.117188 C 53.261719 48.117188 53.496094 48.144531 53.6875 48.199219 C 53.882813 48.25 54.042969 48.332031 54.167969 48.445313 C 54.292969 48.554688 54.382813 48.699219 54.441406 48.871094 C 54.5 49.042969 54.527344 49.25 54.527344 49.492188 Z M 53.5625 50.34375 L 53.1875 50.34375 C 53.03125 50.34375 52.894531 50.355469 52.78125 50.375 C 52.667969 50.402344 52.578125 50.4375 52.507813 50.484375 C 52.4375 50.53125 52.386719 50.585938 52.351563 50.65625 C 52.320313 50.722656 52.304688 50.792969 52.304688 50.882813 C 52.304688 51.027344 52.351563 51.144531 52.445313 51.226563 C 52.535156 51.3125 52.664063 51.351563 52.828125 51.351563 C 52.96875 51.351563 53.09375 51.316406 53.210938 51.246094 C 53.324219 51.175781 53.441406 51.074219 53.5625 50.9375 Z M 53.5625 50.34375 "/>
<g clip-path="url(#clip1)" clip-rule="nonzero">
<path style=" stroke:none;fill-rule:evenodd;fill:rgb(6.272888%,16.479492%,51.367188%);fill-opacity:1;" d="M 58.648438 48.582031 C 58.648438 48.707031 58.632813 48.800781 58.605469 48.859375 C 58.578125 48.917969 58.542969 48.949219 58.5 48.949219 L 58.089844 48.949219 C 58.148438 49.011719 58.1875 49.082031 58.214844 49.164063 C 58.238281 49.242188 58.25 49.324219 58.25 49.410156 C 58.25 49.613281 58.214844 49.792969 58.148438 49.953125 C 58.082031 50.109375 57.984375 50.242188 57.855469 50.347656 C 57.730469 50.457031 57.578125 50.539063 57.402344 50.597656 C 57.222656 50.652344 57.023438 50.679688 56.804688 50.679688 C 56.691406 50.679688 56.585938 50.667969 56.484375 50.636719 C 56.382813 50.613281 56.304688 50.578125 56.25 50.542969 C 56.21875 50.578125 56.191406 50.617188 56.167969 50.664063 C 56.140625 50.707031 56.128906 50.761719 56.128906 50.820313 C 56.128906 50.894531 56.164063 50.957031 56.230469 51.007813 C 56.292969 51.054688 56.386719 51.082031 56.507813 51.082031 L 57.355469 51.117188 C 57.554688 51.125 57.730469 51.152344 57.886719 51.203125 C 58.039063 51.25 58.171875 51.316406 58.277344 51.402344 C 58.382813 51.492188 58.460938 51.597656 58.515625 51.71875 C 58.574219 51.835938 58.601563 51.980469 58.601563 52.136719 C 58.601563 52.308594 58.5625 52.46875 58.488281 52.625 C 58.414063 52.777344 58.300781 52.90625 58.148438 53.019531 C 57.996094 53.132813 57.808594 53.21875 57.578125 53.285156 C 57.351563 53.351563 57.085938 53.382813 56.78125 53.382813 C 56.484375 53.382813 56.230469 53.359375 56.019531 53.3125 C 55.8125 53.265625 55.640625 53.203125 55.507813 53.117188 C 55.371094 53.035156 55.273438 52.933594 55.214844 52.820313 C 55.152344 52.703125 55.121094 52.574219 55.121094 52.4375 C 55.121094 52.351563 55.132813 52.269531 55.15625 52.191406 C 55.175781 52.113281 55.210938 52.039063 55.253906 51.960938 C 55.292969 51.894531 55.347656 51.828125 55.410156 51.761719 C 55.472656 51.699219 55.542969 51.632813 55.625 51.574219 C 55.511719 51.515625 55.425781 51.433594 55.363281 51.332031 C 55.304688 51.226563 55.273438 51.113281 55.273438 50.992188 C 55.273438 50.835938 55.308594 50.699219 55.378906 50.570313 C 55.449219 50.445313 55.542969 50.332031 55.652344 50.230469 C 55.5625 50.140625 55.488281 50.03125 55.433594 49.902344 C 55.378906 49.773438 55.351563 49.617188 55.351563 49.425781 C 55.351563 49.222656 55.386719 49.042969 55.460938 48.882813 C 55.53125 48.722656 55.628906 48.582031 55.757813 48.476563 C 55.886719 48.363281 56.039063 48.28125 56.214844 48.222656 C 56.390625 48.164063 56.589844 48.132813 56.800781 48.132813 C 56.910156 48.132813 57.015625 48.140625 57.117188 48.152344 C 57.214844 48.164063 57.308594 48.183594 57.394531 48.207031 L 58.5 48.207031 C 58.542969 48.207031 58.578125 48.234375 58.609375 48.292969 C 58.632813 48.351563 58.648438 48.445313 58.648438 48.582031 Z M 57.386719 49.40625 C 57.386719 49.21875 57.335938 49.074219 57.230469 48.96875 C 57.125 48.867188 56.980469 48.8125 56.789063 48.8125 C 56.691406 48.8125 56.609375 48.828125 56.535156 48.863281 C 56.460938 48.894531 56.402344 48.9375 56.351563 48.996094 C 56.304688 49.050781 56.269531 49.117188 56.246094 49.1875 C 56.222656 49.265625 56.210938 49.335938 56.210938 49.417969 C 56.210938 49.597656 56.265625 49.738281 56.367188 49.84375 C 56.472656 49.945313 56.617188 49.996094 56.800781 49.996094 C 56.898438 49.996094 56.988281 49.980469 57.058594 49.949219 C 57.132813 49.917969 57.191406 49.875 57.238281 49.820313 C 57.289063 49.765625 57.324219 49.703125 57.347656 49.625 C 57.375 49.558594 57.386719 49.484375 57.386719 49.40625 Z M 57.617188 52.1875 C 57.617188 52.070313 57.570313 51.980469 57.476563 51.917969 C 57.382813 51.855469 57.253906 51.820313 57.089844 51.816406 L 56.390625 51.792969 C 56.324219 51.847656 56.269531 51.894531 56.230469 51.941406 C 56.1875 51.984375 56.15625 52.03125 56.128906 52.070313 C 56.105469 52.113281 56.089844 52.152344 56.082031 52.191406 C 56.074219 52.230469 56.070313 52.269531 56.070313 52.3125 C 56.070313 52.441406 56.136719 52.539063 56.269531 52.609375 C 56.398438 52.671875 56.585938 52.710938 56.824219 52.710938 C 56.972656 52.710938 57.097656 52.695313 57.199219 52.664063 C 57.300781 52.636719 57.382813 52.597656 57.445313 52.546875 C 57.507813 52.496094 57.550781 52.441406 57.578125 52.382813 C 57.605469 52.320313 57.617188 52.257813 57.617188 52.1875 Z M 62.433594 49.980469 C 62.433594 50.101563 62.40625 50.1875 62.355469 50.246094 C 62.300781 50.304688 62.226563 50.332031 62.132813 50.332031 L 60.011719 50.332031 C 60.011719 50.480469 60.03125 50.617188 60.066406 50.734375 C 60.101563 50.855469 60.15625 50.957031 60.234375 51.042969 C 60.308594 51.125 60.410156 51.195313 60.53125 51.238281 C 60.652344 51.28125 60.796875 51.304688 60.964844 51.304688 C 61.136719 51.304688 61.289063 51.292969 61.417969 51.269531 C 61.550781 51.242188 61.664063 51.210938 61.757813 51.183594 C 61.851563 51.15625 61.929688 51.125 61.992188 51.105469 C 62.054688 51.078125 62.105469 51.066406 62.144531 51.066406 C 62.167969 51.066406 62.1875 51.070313 62.203125 51.078125 C 62.21875 51.085938 62.234375 51.105469 62.242188 51.125 C 62.253906 51.152344 62.261719 51.183594 62.265625 51.230469 C 62.269531 51.273438 62.269531 51.324219 62.269531 51.390625 C 62.269531 51.449219 62.269531 51.496094 62.265625 51.539063 C 62.261719 51.578125 62.257813 51.613281 62.253906 51.640625 C 62.25 51.667969 62.242188 51.695313 62.230469 51.710938 C 62.222656 51.734375 62.207031 51.75 62.191406 51.769531 C 62.171875 51.789063 62.128906 51.8125 62.050781 51.84375 C 61.976563 51.875 61.878906 51.90625 61.761719 51.9375 C 61.644531 51.960938 61.511719 51.992188 61.359375 52.011719 C 61.210938 52.035156 61.046875 52.042969 60.875 52.042969 C 60.566406 52.042969 60.292969 52.007813 60.0625 51.929688 C 59.828125 51.851563 59.632813 51.734375 59.476563 51.574219 C 59.320313 51.414063 59.203125 51.210938 59.128906 50.972656 C 59.050781 50.730469 59.011719 50.445313 59.011719 50.121094 C 59.011719 49.8125 59.054688 49.53125 59.132813 49.285156 C 59.214844 49.035156 59.332031 48.824219 59.484375 48.652344 C 59.640625 48.476563 59.828125 48.34375 60.046875 48.25 C 60.265625 48.164063 60.515625 48.117188 60.789063 48.117188 C 61.082031 48.117188 61.332031 48.160156 61.539063 48.246094 C 61.746094 48.332031 61.914063 48.453125 62.046875 48.605469 C 62.179688 48.757813 62.277344 48.9375 62.339844 49.144531 C 62.402344 49.351563 62.433594 49.578125 62.433594 49.824219 Z M 61.480469 49.699219 C 61.488281 49.425781 61.433594 49.207031 61.316406 49.050781 C 61.195313 48.890625 61.015625 48.8125 60.765625 48.8125 C 60.640625 48.8125 60.535156 48.832031 60.441406 48.882813 C 60.347656 48.929688 60.273438 48.992188 60.210938 49.070313 C 60.148438 49.152344 60.101563 49.246094 60.070313 49.351563 C 60.039063 49.457031 60.019531 49.578125 60.011719 49.699219 Z M 68.785156 51.824219 C 68.785156 51.851563 68.78125 51.875 68.765625 51.894531 C 68.746094 51.910156 68.722656 51.929688 68.683594 51.941406 C 68.648438 51.953125 68.601563 51.960938 68.539063 51.96875 C 68.476563 51.976563 68.394531 51.980469 68.296875 51.980469 C 68.199219 51.980469 68.117188 51.976563 68.058594 51.96875 C 67.996094 51.960938 67.945313 51.953125 67.90625 51.941406 C 67.867188 51.929688 67.84375 51.910156 67.828125 51.894531 C 67.8125 51.875 67.808594 51.851563 67.808594 51.824219 L 67.808594 49.757813 C 67.808594 49.640625 67.796875 49.535156 67.773438 49.4375 C 67.753906 49.335938 67.71875 49.257813 67.671875 49.1875 C 67.625 49.121094 67.570313 49.066406 67.5 49.03125 C 67.429688 48.992188 67.347656 48.972656 67.253906 48.972656 C 67.132813 48.972656 67.015625 49.019531 66.894531 49.109375 C 66.777344 49.203125 66.648438 49.332031 66.503906 49.507813 L 66.503906 51.824219 C 66.503906 51.851563 66.5 51.875 66.484375 51.894531 C 66.464844 51.910156 66.441406 51.929688 66.402344 51.941406 C 66.363281 51.953125 66.316406 51.960938 66.25 51.96875 C 66.1875 51.976563 66.113281 51.980469 66.015625 51.980469 C 65.921875 51.980469 65.839844 51.976563 65.78125 51.96875 C 65.71875 51.960938 65.667969 51.953125 65.628906 51.941406 C 65.589844 51.929688 65.5625 51.910156 65.550781 51.894531 C 65.535156 51.875 65.527344 51.851563 65.527344 51.824219 L 65.527344 49.757813 C 65.527344 49.640625 65.515625 49.535156 65.492188 49.4375 C 65.472656 49.335938 65.4375 49.257813 65.390625 49.1875 C 65.347656 49.121094 65.289063 49.066406 65.222656 49.03125 C 65.152344 48.992188 65.066406 48.972656 64.976563 48.972656 C 64.855469 48.972656 64.734375 49.019531 64.613281 49.109375 C 64.496094 49.203125 64.367188 49.332031 64.226563 49.507813 L 64.226563 51.824219 C 64.226563 51.851563 64.222656 51.875 64.207031 51.894531 C 64.1875 51.910156 64.164063 51.929688 64.125 51.941406 C 64.085938 51.953125 64.039063 51.960938 63.976563 51.96875 C 63.910156 51.976563 63.832031 51.980469 63.734375 51.980469 C 63.640625 51.980469 63.558594 51.976563 63.5 51.96875 C 63.4375 51.960938 63.386719 51.953125 63.347656 51.941406 C 63.308594 51.929688 63.28125 51.910156 63.269531 51.894531 C 63.253906 51.875 63.242188 51.851563 63.242188 51.824219 L 63.242188 48.335938 C 63.242188 48.316406 63.25 48.289063 63.265625 48.273438 C 63.277344 48.25 63.300781 48.234375 63.335938 48.222656 C 63.367188 48.207031 63.410156 48.199219 63.464844 48.195313 C 63.519531 48.1875 63.585938 48.183594 63.667969 48.183594 C 63.75 48.183594 63.820313 48.1875 63.875 48.195313 C 63.929688 48.199219 63.96875 48.207031 64 48.222656 C 64.03125 48.234375 64.050781 48.25 64.0625 48.273438 C 64.078125 48.289063 64.085938 48.316406 64.085938 48.335938 L 64.085938 48.742188 C 64.277344 48.535156 64.46875 48.375 64.660156 48.273438 C 64.851563 48.167969 65.050781 48.117188 65.261719 48.117188 C 65.402344 48.117188 65.53125 48.132813 65.648438 48.164063 C 65.761719 48.191406 65.863281 48.234375 65.953125 48.289063 C 66.042969 48.347656 66.121094 48.414063 66.183594 48.492188 C 66.25 48.570313 66.304688 48.65625 66.347656 48.75 C 66.453125 48.644531 66.554688 48.542969 66.65625 48.460938 C 66.757813 48.382813 66.855469 48.320313 66.953125 48.269531 C 67.050781 48.21875 67.148438 48.179688 67.246094 48.15625 C 67.34375 48.125 67.445313 48.117188 67.546875 48.117188 C 67.777344 48.117188 67.972656 48.15625 68.128906 48.234375 C 68.289063 48.3125 68.417969 48.417969 68.515625 48.554688 C 68.613281 48.6875 68.683594 48.84375 68.726563 49.023438 C 68.765625 49.203125 68.785156 49.394531 68.785156 49.59375 Z M 72.96875 49.980469 C 72.96875 50.101563 72.945313 50.1875 72.890625 50.246094 C 72.835938 50.304688 72.765625 50.332031 72.671875 50.332031 L 70.550781 50.332031 C 70.550781 50.480469 70.566406 50.617188 70.601563 50.734375 C 70.636719 50.855469 70.691406 50.957031 70.769531 51.042969 C 70.847656 51.125 70.945313 51.195313 71.066406 51.238281 C 71.1875 51.28125 71.332031 51.304688 71.503906 51.304688 C 71.675781 51.304688 71.824219 51.292969 71.953125 51.269531 C 72.085938 51.242188 72.199219 51.210938 72.292969 51.183594 C 72.386719 51.15625 72.464844 51.125 72.527344 51.105469 C 72.59375 51.078125 72.644531 51.066406 72.679688 51.066406 C 72.707031 51.066406 72.726563 51.070313 72.738281 51.078125 C 72.757813 51.085938 72.769531 51.105469 72.78125 51.125 C 72.789063 51.152344 72.796875 51.183594 72.800781 51.230469 C 72.804688 51.273438 72.804688 51.324219 72.804688 51.390625 C 72.804688 51.449219 72.804688 51.496094 72.800781 51.539063 C 72.800781 51.578125 72.796875 51.613281 72.789063 51.640625 C 72.785156 51.667969 72.777344 51.695313 72.765625 51.710938 C 72.757813 51.734375 72.742188 51.75 72.726563 51.769531 C 72.707031 51.789063 72.664063 51.8125 72.585938 51.84375 C 72.511719 51.875 72.414063 51.90625 72.296875 51.9375 C 72.179688 51.960938 72.046875 51.992188 71.898438 52.011719 C 71.746094 52.035156 71.582031 52.042969 71.410156 52.042969 C 71.101563 52.042969 70.832031 52.007813 70.597656 51.929688 C 70.363281 51.851563 70.171875 51.734375 70.011719 51.574219 C 69.855469 51.414063 69.742188 51.210938 69.664063 50.972656 C 69.585938 50.730469 69.550781 50.445313 69.550781 50.121094 C 69.550781 49.8125 69.589844 49.53125 69.671875 49.285156 C 69.75 49.035156 69.867188 48.824219 70.019531 48.652344 C 70.175781 48.476563 70.363281 48.34375 70.582031 48.25 C 70.800781 48.164063 71.050781 48.117188 71.328125 48.117188 C 71.617188 48.117188 71.867188 48.160156 72.074219 48.246094 C 72.28125 48.332031 72.453125 48.453125 72.582031 48.605469 C 72.71875 48.757813 72.8125 48.9375 72.875 49.144531 C 72.941406 49.351563 72.96875 49.578125 72.96875 49.824219 Z M 72.015625 49.699219 C 72.023438 49.425781 71.972656 49.207031 71.851563 49.050781 C 71.734375 48.890625 71.550781 48.8125 71.300781 48.8125 C 71.175781 48.8125 71.070313 48.832031 70.976563 48.882813 C 70.882813 48.929688 70.808594 48.992188 70.746094 49.070313 C 70.683594 49.152344 70.640625 49.246094 70.605469 49.351563 C 70.574219 49.457031 70.554688 49.578125 70.550781 49.699219 Z M 77.109375 51.824219 C 77.109375 51.851563 77.101563 51.875 77.085938 51.894531 C 77.070313 51.910156 77.042969 51.929688 77.007813 51.941406 C 76.972656 51.953125 76.921875 51.960938 76.855469 51.96875 C 76.792969 51.976563 76.714844 51.980469 76.621094 51.980469 C 76.523438 51.980469 76.445313 51.976563 76.378906 51.96875 C 76.316406 51.960938 76.265625 51.953125 76.230469 51.941406 C 76.191406 51.929688 76.167969 51.910156 76.152344 51.894531 C 76.136719 51.875 76.128906 51.851563 76.128906 51.824219 L 76.128906 49.832031 C 76.128906 49.667969 76.117188 49.535156 76.089844 49.4375 C 76.066406 49.335938 76.03125 49.257813 75.984375 49.1875 C 75.9375 49.121094 75.875 49.066406 75.800781 49.03125 C 75.726563 48.992188 75.640625 48.972656 75.542969 48.972656 C 75.417969 48.972656 75.289063 49.019531 75.164063 49.109375 C 75.035156 49.203125 74.902344 49.332031 74.765625 49.507813 L 74.765625 51.824219 C 74.765625 51.851563 74.757813 51.875 74.742188 51.894531 C 74.726563 51.910156 74.699219 51.929688 74.660156 51.941406 C 74.621094 51.953125 74.574219 51.960938 74.511719 51.96875 C 74.449219 51.976563 74.371094 51.980469 74.273438 51.980469 C 74.175781 51.980469 74.097656 51.976563 74.035156 51.96875 C 73.972656 51.960938 73.921875 51.953125 73.882813 51.941406 C 73.84375 51.929688 73.820313 51.910156 73.804688 51.894531 C 73.789063 51.875 73.78125 51.851563 73.78125 51.824219 L 73.78125 48.335938 C 73.78125 48.316406 73.785156 48.289063 73.800781 48.273438 C 73.8125 48.25 73.835938 48.234375 73.871094 48.222656 C 73.902344 48.207031 73.949219 48.199219 74 48.195313 C 74.054688 48.1875 74.121094 48.183594 74.203125 48.183594 C 74.285156 48.183594 74.355469 48.1875 74.410156 48.195313 C 74.464844 48.199219 74.507813 48.207031 74.535156 48.222656 C 74.566406 48.234375 74.589844 48.25 74.601563 48.273438 C 74.613281 48.289063 74.621094 48.316406 74.621094 48.335938 L 74.621094 48.742188 C 74.8125 48.535156 75.007813 48.375 75.207031 48.273438 C 75.40625 48.167969 75.613281 48.117188 75.832031 48.117188 C 76.066406 48.117188 76.269531 48.15625 76.429688 48.234375 C 76.59375 48.3125 76.726563 48.417969 76.824219 48.554688 C 76.925781 48.6875 76.996094 48.84375 77.042969 49.023438 C 77.085938 49.203125 77.109375 49.417969 77.109375 49.667969 Z M 80.0625 51.480469 C 80.0625 51.597656 80.054688 51.683594 80.039063 51.742188 C 80.027344 51.804688 80.007813 51.847656 79.984375 51.875 C 79.960938 51.898438 79.925781 51.917969 79.878906 51.941406 C 79.835938 51.957031 79.78125 51.976563 79.71875 51.992188 C 79.660156 52 79.59375 52.015625 79.519531 52.023438 C 79.449219 52.03125 79.375 52.035156 79.304688 52.035156 C 79.109375 52.035156 78.9375 52.011719 78.796875 51.957031 C 78.652344 51.910156 78.535156 51.832031 78.441406 51.734375 C 78.347656 51.625 78.277344 51.5 78.234375 51.34375 C 78.191406 51.1875 78.167969 51 78.167969 50.789063 L 78.167969 49 L 77.75 49 C 77.699219 49 77.660156 48.972656 77.636719 48.910156 C 77.609375 48.851563 77.597656 48.75 77.597656 48.605469 C 77.597656 48.53125 77.601563 48.460938 77.605469 48.414063 C 77.613281 48.363281 77.621094 48.320313 77.636719 48.289063 C 77.648438 48.261719 77.664063 48.238281 77.683594 48.226563 C 77.703125 48.210938 77.726563 48.207031 77.753906 48.207031 L 78.167969 48.207031 L 78.167969 47.429688 C 78.167969 47.402344 78.171875 47.375 78.1875 47.359375 C 78.203125 47.335938 78.230469 47.320313 78.265625 47.308594 C 78.304688 47.292969 78.355469 47.28125 78.417969 47.277344 C 78.484375 47.269531 78.5625 47.265625 78.65625 47.265625 C 78.753906 47.265625 78.832031 47.269531 78.894531 47.277344 C 78.957031 47.28125 79.007813 47.292969 79.046875 47.308594 C 79.082031 47.320313 79.109375 47.335938 79.125 47.359375 C 79.140625 47.375 79.148438 47.402344 79.148438 47.429688 L 79.148438 48.207031 L 79.90625 48.207031 C 79.929688 48.207031 79.953125 48.210938 79.972656 48.226563 C 79.992188 48.238281 80.007813 48.261719 80.023438 48.289063 C 80.035156 48.320313 80.046875 48.363281 80.050781 48.414063 C 80.058594 48.460938 80.0625 48.53125 80.0625 48.605469 C 80.0625 48.75 80.046875 48.851563 80.023438 48.910156 C 79.996094 48.972656 79.957031 49 79.910156 49 L 79.148438 49 L 79.148438 50.640625 C 79.148438 50.832031 79.175781 50.972656 79.238281 51.066406 C 79.296875 51.164063 79.402344 51.207031 79.558594 51.207031 C 79.609375 51.207031 79.65625 51.207031 79.699219 51.199219 C 79.738281 51.1875 79.777344 51.179688 79.808594 51.167969 C 79.839844 51.15625 79.871094 51.144531 79.890625 51.132813 C 79.914063 51.125 79.933594 51.121094 79.953125 51.121094 C 79.96875 51.121094 79.984375 51.125 79.996094 51.132813 C 80.011719 51.144531 80.023438 51.164063 80.03125 51.191406 C 80.039063 51.21875 80.046875 51.25 80.050781 51.300781 C 80.058594 51.347656 80.0625 51.40625 80.0625 51.480469 Z M 85.636719 50.441406 C 85.636719 50.707031 85.585938 50.941406 85.488281 51.140625 C 85.386719 51.335938 85.253906 51.507813 85.085938 51.644531 C 84.914063 51.777344 84.71875 51.875 84.492188 51.945313 C 84.265625 52.011719 84.023438 52.042969 83.765625 52.042969 C 83.589844 52.042969 83.425781 52.035156 83.277344 52 C 83.128906 51.976563 82.996094 51.941406 82.882813 51.902344 C 82.765625 51.859375 82.671875 51.820313 82.59375 51.773438 C 82.519531 51.730469 82.460938 51.691406 82.429688 51.65625 C 82.394531 51.621094 82.371094 51.574219 82.355469 51.511719 C 82.339844 51.445313 82.335938 51.355469 82.335938 51.234375 C 82.335938 51.152344 82.339844 51.082031 82.34375 51.03125 C 82.347656 50.976563 82.355469 50.933594 82.367188 50.898438 C 82.378906 50.867188 82.394531 50.835938 82.414063 50.828125 C 82.433594 50.8125 82.457031 50.804688 82.484375 50.804688 C 82.519531 50.804688 82.570313 50.828125 82.636719 50.871094 C 82.703125 50.910156 82.789063 50.957031 82.894531 51.011719 C 82.996094 51.0625 83.121094 51.113281 83.265625 51.15625 C 83.410156 51.199219 83.578125 51.21875 83.769531 51.21875 C 83.894531 51.21875 84.003906 51.203125 84.105469 51.175781 C 84.203125 51.144531 84.285156 51.101563 84.355469 51.042969 C 84.425781 50.992188 84.476563 50.925781 84.515625 50.84375 C 84.550781 50.761719 84.570313 50.667969 84.570313 50.574219 C 84.570313 50.457031 84.539063 50.363281 84.476563 50.28125 C 84.414063 50.195313 84.332031 50.125 84.230469 50.0625 C 84.132813 49.996094 84.015625 49.9375 83.890625 49.882813 C 83.761719 49.824219 83.628906 49.765625 83.496094 49.703125 C 83.359375 49.640625 83.226563 49.570313 83.101563 49.492188 C 82.972656 49.410156 82.859375 49.316406 82.757813 49.207031 C 82.65625 49.09375 82.578125 48.960938 82.511719 48.8125 C 82.449219 48.660156 82.421875 48.480469 82.421875 48.269531 C 82.421875 48.027344 82.464844 47.816406 82.554688 47.632813 C 82.644531 47.449219 82.765625 47.292969 82.917969 47.175781 C 83.070313 47.054688 83.25 46.957031 83.457031 46.902344 C 83.664063 46.84375 83.882813 46.8125 84.117188 46.8125 C 84.234375 46.8125 84.355469 46.820313 84.476563 46.835938 C 84.59375 46.859375 84.707031 46.882813 84.8125 46.914063 C 84.914063 46.945313 85.007813 46.980469 85.089844 47.019531 C 85.167969 47.058594 85.222656 47.09375 85.25 47.117188 C 85.273438 47.144531 85.292969 47.164063 85.300781 47.183594 C 85.3125 47.203125 85.316406 47.226563 85.324219 47.257813 C 85.332031 47.285156 85.335938 47.324219 85.339844 47.371094 C 85.339844 47.414063 85.34375 47.472656 85.34375 47.539063 C 85.34375 47.613281 85.339844 47.679688 85.335938 47.730469 C 85.332031 47.78125 85.328125 47.824219 85.316406 47.859375 C 85.308594 47.894531 85.296875 47.917969 85.277344 47.933594 C 85.261719 47.949219 85.238281 47.957031 85.210938 47.957031 C 85.179688 47.957031 85.136719 47.9375 85.074219 47.902344 C 85.011719 47.867188 84.933594 47.828125 84.84375 47.785156 C 84.75 47.738281 84.648438 47.703125 84.527344 47.667969 C 84.40625 47.632813 84.277344 47.613281 84.132813 47.613281 C 84.019531 47.613281 83.921875 47.625 83.839844 47.65625 C 83.757813 47.679688 83.6875 47.71875 83.628906 47.769531 C 83.574219 47.816406 83.535156 47.875 83.503906 47.941406 C 83.480469 48.007813 83.464844 48.082031 83.464844 48.15625 C 83.464844 48.269531 83.496094 48.367188 83.554688 48.449219 C 83.617188 48.53125 83.699219 48.601563 83.800781 48.667969 C 83.90625 48.730469 84.019531 48.789063 84.152344 48.84375 C 84.28125 48.902344 84.414063 48.957031 84.550781 49.023438 C 84.683594 49.082031 84.820313 49.15625 84.949219 49.234375 C 85.078125 49.316406 85.195313 49.410156 85.296875 49.519531 C 85.398438 49.632813 85.480469 49.761719 85.542969 49.914063 C 85.605469 50.0625 85.636719 50.238281 85.636719 50.441406 Z M 88.269531 51.957031 L 87.847656 53.191406 C 87.824219 53.257813 87.757813 53.304688 87.65625 53.328125 C 87.550781 53.363281 87.398438 53.375 87.199219 53.375 C 87.09375 53.375 87.007813 53.371094 86.949219 53.363281 C 86.886719 53.351563 86.839844 53.335938 86.808594 53.316406 C 86.777344 53.296875 86.757813 53.269531 86.757813 53.238281 C 86.753906 53.203125 86.761719 53.164063 86.78125 53.125 L 87.246094 51.957031 C 87.210938 51.941406 87.179688 51.917969 87.152344 51.886719 C 87.125 51.851563 87.105469 51.816406 87.09375 51.78125 L 85.894531 48.578125 C 85.859375 48.488281 85.839844 48.417969 85.839844 48.371094 C 85.839844 48.320313 85.859375 48.285156 85.890625 48.257813 C 85.921875 48.230469 85.972656 48.207031 86.046875 48.199219 C 86.121094 48.1875 86.21875 48.183594 86.339844 48.183594 C 86.453125 48.183594 86.542969 48.183594 86.609375 48.1875 C 86.671875 48.191406 86.722656 48.203125 86.761719 48.21875 C 86.796875 48.234375 86.824219 48.257813 86.839844 48.289063 C 86.859375 48.324219 86.878906 48.371094 86.894531 48.429688 L 87.71875 50.761719 L 87.730469 50.761719 L 88.480469 48.382813 C 88.496094 48.316406 88.515625 48.269531 88.539063 48.246094 C 88.5625 48.226563 88.605469 48.207031 88.664063 48.199219 C 88.71875 48.1875 88.820313 48.183594 88.960938 48.183594 C 89.074219 48.183594 89.167969 48.1875 89.242188 48.199219 C 89.316406 48.207031 89.371094 48.230469 89.40625 48.257813 C 89.441406 48.285156 89.457031 48.324219 89.457031 48.375 C 89.457031 48.417969 89.449219 48.480469 89.429688 48.542969 Z M 92.441406 50.835938 C 92.441406 51.039063 92.402344 51.207031 92.328125 51.363281 C 92.253906 51.515625 92.148438 51.640625 92.015625 51.742188 C 91.878906 51.84375 91.71875 51.917969 91.535156 51.96875 C 91.351563 52.019531 91.148438 52.042969 90.933594 52.042969 C 90.800781 52.042969 90.675781 52.039063 90.558594 52.015625 C 90.441406 52 90.335938 51.972656 90.242188 51.945313 C 90.148438 51.914063 90.070313 51.882813 90.007813 51.851563 C 89.945313 51.820313 89.898438 51.789063 89.871094 51.765625 C 89.839844 51.734375 89.820313 51.695313 89.804688 51.632813 C 89.789063 51.574219 89.78125 51.488281 89.78125 51.375 C 89.78125 51.300781 89.785156 51.238281 89.789063 51.195313 C 89.792969 51.148438 89.800781 51.113281 89.8125 51.082031 C 89.820313 51.058594 89.835938 51.039063 89.851563 51.027344 C 89.867188 51.019531 89.886719 51.015625 89.910156 51.015625 C 89.9375 51.015625 89.980469 51.03125 90.035156 51.066406 C 90.09375 51.097656 90.160156 51.132813 90.246094 51.167969 C 90.328125 51.207031 90.425781 51.25 90.535156 51.28125 C 90.648438 51.316406 90.773438 51.332031 90.914063 51.332031 C 91 51.332031 91.082031 51.324219 91.148438 51.304688 C 91.21875 51.285156 91.277344 51.261719 91.328125 51.226563 C 91.378906 51.195313 91.417969 51.152344 91.445313 51.097656 C 91.46875 51.042969 91.484375 50.984375 91.484375 50.917969 C 91.484375 50.835938 91.460938 50.773438 91.410156 50.71875 C 91.363281 50.660156 91.300781 50.613281 91.21875 50.570313 C 91.140625 50.527344 91.050781 50.488281 90.949219 50.453125 C 90.851563 50.417969 90.746094 50.375 90.640625 50.332031 C 90.535156 50.289063 90.433594 50.238281 90.332031 50.179688 C 90.230469 50.121094 90.144531 50.050781 90.0625 49.96875 C 89.984375 49.886719 89.921875 49.785156 89.871094 49.667969 C 89.824219 49.550781 89.800781 49.410156 89.800781 49.246094 C 89.800781 49.078125 89.832031 48.925781 89.898438 48.789063 C 89.964844 48.648438 90.054688 48.53125 90.179688 48.429688 C 90.300781 48.332031 90.449219 48.25 90.625 48.199219 C 90.800781 48.144531 91 48.117188 91.21875 48.117188 C 91.328125 48.117188 91.433594 48.125 91.535156 48.140625 C 91.640625 48.15625 91.730469 48.175781 91.816406 48.199219 C 91.898438 48.222656 91.96875 48.246094 92.027344 48.277344 C 92.082031 48.300781 92.125 48.328125 92.148438 48.34375 C 92.171875 48.367188 92.191406 48.386719 92.203125 48.402344 C 92.210938 48.425781 92.21875 48.449219 92.226563 48.476563 C 92.230469 48.5 92.234375 48.535156 92.238281 48.574219 C 92.242188 48.617188 92.246094 48.667969 92.246094 48.726563 C 92.246094 48.792969 92.242188 48.855469 92.238281 48.898438 C 92.234375 48.941406 92.226563 48.980469 92.21875 49 C 92.210938 49.03125 92.199219 49.042969 92.183594 49.058594 C 92.167969 49.066406 92.148438 49.070313 92.128906 49.070313 C 92.105469 49.070313 92.066406 49.058594 92.019531 49.03125 C 91.96875 49 91.90625 48.972656 91.832031 48.941406 C 91.757813 48.910156 91.671875 48.882813 91.574219 48.851563 C 91.476563 48.828125 91.367188 48.8125 91.242188 48.8125 C 91.152344 48.8125 91.078125 48.820313 91.011719 48.835938 C 90.945313 48.859375 90.890625 48.882813 90.851563 48.917969 C 90.808594 48.953125 90.777344 48.992188 90.757813 49.039063 C 90.734375 49.082031 90.726563 49.132813 90.726563 49.183594 C 90.726563 49.265625 90.75 49.332031 90.800781 49.386719 C 90.851563 49.441406 90.914063 49.488281 90.996094 49.53125 C 91.078125 49.574219 91.167969 49.613281 91.269531 49.648438 C 91.375 49.683594 91.476563 49.726563 91.582031 49.769531 C 91.6875 49.8125 91.792969 49.863281 91.894531 49.917969 C 91.996094 49.976563 92.089844 50.042969 92.171875 50.125 C 92.25 50.207031 92.316406 50.3125 92.367188 50.429688 C 92.414063 50.542969 92.441406 50.679688 92.441406 50.835938 Z M 95.152344 51.480469 C 95.152344 51.597656 95.144531 51.683594 95.132813 51.742188 C 95.117188 51.804688 95.097656 51.847656 95.074219 51.875 C 95.050781 51.898438 95.015625 51.917969 94.972656 51.941406 C 94.925781 51.957031 94.871094 51.976563 94.8125 51.992188 C 94.75 52 94.683594 52.015625 94.609375 52.023438 C 94.539063 52.03125 94.46875 52.035156 94.394531 52.035156 C 94.199219 52.035156 94.03125 52.011719 93.886719 51.957031 C 93.742188 51.910156 93.625 51.832031 93.53125 51.734375 C 93.4375 51.625 93.367188 51.5 93.324219 51.34375 C 93.28125 51.1875 93.257813 51 93.257813 50.789063 L 93.257813 49 L 92.839844 49 C 92.792969 49 92.753906 48.972656 92.726563 48.910156 C 92.699219 48.851563 92.6875 48.75 92.6875 48.605469 C 92.6875 48.53125 92.691406 48.460938 92.699219 48.414063 C 92.703125 48.363281 92.714844 48.320313 92.726563 48.289063 C 92.738281 48.261719 92.757813 48.238281 92.773438 48.226563 C 92.796875 48.210938 92.816406 48.207031 92.84375 48.207031 L 93.257813 48.207031 L 93.257813 47.429688 C 93.257813 47.402344 93.265625 47.375 93.277344 47.359375 C 93.292969 47.335938 93.320313 47.320313 93.359375 47.308594 C 93.394531 47.292969 93.445313 47.28125 93.507813 47.277344 C 93.574219 47.269531 93.652344 47.265625 93.746094 47.265625 C 93.84375 47.265625 93.921875 47.269531 93.988281 47.277344 C 94.050781 47.28125 94.101563 47.292969 94.136719 47.308594 C 94.171875 47.320313 94.199219 47.335938 94.214844 47.359375 C 94.230469 47.375 94.238281 47.402344 94.238281 47.429688 L 94.238281 48.207031 L 94.996094 48.207031 C 95.023438 48.207031 95.042969 48.210938 95.0625 48.226563 C 95.085938 48.238281 95.101563 48.261719 95.113281 48.289063 C 95.125 48.320313 95.136719 48.363281 95.144531 48.414063 C 95.148438 48.460938 95.152344 48.53125 95.152344 48.605469 C 95.152344 48.75 95.136719 48.851563 95.113281 48.910156 C 95.085938 48.972656 95.050781 49 95 49 L 94.238281 49 L 94.238281 50.640625 C 94.238281 50.832031 94.269531 50.972656 94.328125 51.066406 C 94.386719 51.164063 94.496094 51.207031 94.648438 51.207031 C 94.699219 51.207031 94.746094 51.207031 94.789063 51.199219 C 94.832031 51.1875 94.867188 51.179688 94.898438 51.167969 C 94.933594 51.15625 94.960938 51.144531 94.984375 51.132813 C 95.003906 51.125 95.023438 51.121094 95.042969 51.121094 C 95.058594 51.121094 95.074219 51.125 95.085938 51.132813 C 95.101563 51.144531 95.113281 51.164063 95.121094 51.191406 C 95.128906 51.21875 95.136719 51.25 95.140625 51.300781 C 95.148438 51.347656 95.152344 51.40625 95.152344 51.480469 Z M 95.152344 51.480469 "/>
</g>
<g clip-path="url(#clip2)" clip-rule="nonzero">
<path style=" stroke:none;fill-rule:evenodd;fill:rgb(6.272888%,16.479492%,51.367188%);fill-opacity:1;" d="M 98.984375 49.980469 C 98.984375 50.101563 98.957031 50.1875 98.90625 50.246094 C 98.851563 50.304688 98.777344 50.332031 98.683594 50.332031 L 96.5625 50.332031 C 96.5625 50.480469 96.582031 50.617188 96.613281 50.734375 C 96.652344 50.855469 96.707031 50.957031 96.785156 51.042969 C 96.859375 51.125 96.960938 51.195313 97.082031 51.238281 C 97.203125 51.28125 97.347656 51.304688 97.515625 51.304688 C 97.6875 51.304688 97.839844 51.292969 97.96875 51.269531 C 98.097656 51.242188 98.210938 51.210938 98.308594 51.183594 C 98.402344 51.15625 98.480469 51.125 98.542969 51.105469 C 98.605469 51.078125 98.65625 51.066406 98.695313 51.066406 C 98.71875 51.066406 98.738281 51.070313 98.753906 51.078125 C 98.769531 51.085938 98.785156 51.105469 98.792969 51.125 C 98.804688 51.152344 98.8125 51.183594 98.816406 51.230469 C 98.820313 51.273438 98.820313 51.324219 98.820313 51.390625 C 98.820313 51.449219 98.820313 51.496094 98.816406 51.539063 C 98.8125 51.578125 98.808594 51.613281 98.804688 51.640625 C 98.800781 51.667969 98.792969 51.695313 98.78125 51.710938 C 98.769531 51.734375 98.757813 51.75 98.738281 51.769531 C 98.722656 51.789063 98.675781 51.8125 98.601563 51.84375 C 98.527344 51.875 98.429688 51.90625 98.3125 51.9375 C 98.195313 51.960938 98.0625 51.992188 97.910156 52.011719 C 97.757813 52.035156 97.597656 52.042969 97.425781 52.042969 C 97.117188 52.042969 96.84375 52.007813 96.609375 51.929688 C 96.378906 51.851563 96.183594 51.734375 96.027344 51.574219 C 95.871094 51.414063 95.753906 51.210938 95.675781 50.972656 C 95.601563 50.730469 95.5625 50.445313 95.5625 50.121094 C 95.5625 49.8125 95.601563 49.53125 95.683594 49.285156 C 95.765625 49.035156 95.882813 48.824219 96.035156 48.652344 C 96.1875 48.476563 96.375 48.34375 96.597656 48.25 C 96.816406 48.164063 97.0625 48.117188 97.339844 48.117188 C 97.632813 48.117188 97.882813 48.160156 98.089844 48.246094 C 98.292969 48.332031 98.464844 48.453125 98.597656 48.605469 C 98.730469 48.757813 98.828125 48.9375 98.890625 49.144531 C 98.953125 49.351563 98.984375 49.578125 98.984375 49.824219 Z M 98.03125 49.699219 C 98.039063 49.425781 97.984375 49.207031 97.867188 49.050781 C 97.746094 48.890625 97.566406 48.8125 97.316406 48.8125 C 97.191406 48.8125 97.082031 48.832031 96.992188 48.882813 C 96.898438 48.929688 96.820313 48.992188 96.761719 49.070313 C 96.699219 49.152344 96.652344 49.246094 96.621094 49.351563 C 96.585938 49.457031 96.570313 49.578125 96.5625 49.699219 Z M 105.335938 51.824219 C 105.335938 51.851563 105.328125 51.875 105.3125 51.894531 C 105.296875 51.910156 105.273438 51.929688 105.234375 51.941406 C 105.199219 51.953125 105.148438 51.960938 105.085938 51.96875 C 105.023438 51.976563 104.945313 51.980469 104.847656 51.980469 C 104.75 51.980469 104.667969 51.976563 104.605469 51.96875 C 104.542969 51.960938 104.492188 51.953125 104.457031 51.941406 C 104.417969 51.929688 104.394531 51.910156 104.378906 51.894531 C 104.363281 51.875 104.355469 51.851563 104.355469 51.824219 L 104.355469 49.757813 C 104.355469 49.640625 104.347656 49.535156 104.324219 49.4375 C 104.300781 49.335938 104.265625 49.257813 104.222656 49.1875 C 104.175781 49.121094 104.117188 49.066406 104.050781 49.03125 C 103.980469 48.992188 103.898438 48.972656 103.800781 48.972656 C 103.683594 48.972656 103.566406 49.019531 103.445313 49.109375 C 103.328125 49.203125 103.195313 49.332031 103.054688 49.507813 L 103.054688 51.824219 C 103.054688 51.851563 103.046875 51.875 103.03125 51.894531 C 103.015625 51.910156 102.988281 51.929688 102.953125 51.941406 C 102.914063 51.953125 102.863281 51.960938 102.800781 51.96875 C 102.738281 51.976563 102.660156 51.980469 102.566406 51.980469 C 102.472656 51.980469 102.390625 51.976563 102.328125 51.96875 C 102.265625 51.960938 102.214844 51.953125 102.179688 51.941406 C 102.140625 51.929688 102.113281 51.910156 102.097656 51.894531 C 102.082031 51.875 102.074219 51.851563 102.074219 51.824219 L 102.074219 49.757813 C 102.074219 49.640625 102.066406 49.535156 102.042969 49.4375 C 102.019531 49.335938 101.988281 49.257813 101.941406 49.1875 C 101.898438 49.121094 101.839844 49.066406 101.769531 49.03125 C 101.699219 48.992188 101.617188 48.972656 101.523438 48.972656 C 101.40625 48.972656 101.285156 49.019531 101.164063 49.109375 C 101.046875 49.203125 100.917969 49.332031 100.777344 49.507813 L 100.777344 51.824219 C 100.777344 51.851563 100.769531 51.875 100.753906 51.894531 C 100.738281 51.910156 100.710938 51.929688 100.675781 51.941406 C 100.636719 51.953125 100.585938 51.960938 100.523438 51.96875 C 100.460938 51.976563 100.382813 51.980469 100.285156 51.980469 C 100.191406 51.980469 100.109375 51.976563 100.046875 51.96875 C 99.984375 51.960938 99.933594 51.953125 99.898438 51.941406 C 99.859375 51.929688 99.832031 51.910156 99.816406 51.894531 C 99.800781 51.875 99.792969 51.851563 99.792969 51.824219 L 99.792969 48.335938 C 99.792969 48.316406 99.800781 48.289063 99.8125 48.273438 C 99.828125 48.25 99.851563 48.234375 99.882813 48.222656 C 99.917969 48.207031 99.960938 48.199219 100.015625 48.195313 C 100.070313 48.1875 100.136719 48.183594 100.214844 48.183594 C 100.300781 48.183594 100.367188 48.1875 100.421875 48.195313 C 100.476563 48.199219 100.519531 48.207031 100.550781 48.222656 C 100.582031 48.234375 100.601563 48.25 100.613281 48.273438 C 100.628906 48.289063 100.632813 48.316406 100.632813 48.335938 L 100.632813 48.742188 C 100.828125 48.535156 101.019531 48.375 101.210938 48.273438 C 101.402344 48.167969 101.601563 48.117188 101.808594 48.117188 C 101.953125 48.117188 102.082031 48.132813 102.195313 48.164063 C 102.3125 48.191406 102.414063 48.234375 102.503906 48.289063 C 102.59375 48.347656 102.667969 48.414063 102.734375 48.492188 C 102.800781 48.570313 102.855469 48.65625 102.898438 48.75 C 103.003906 48.644531 103.105469 48.542969 103.207031 48.460938 C 103.304688 48.382813 103.40625 48.320313 103.503906 48.269531 C 103.601563 48.21875 103.699219 48.179688 103.796875 48.15625 C 103.894531 48.125 103.992188 48.117188 104.09375 48.117188 C 104.328125 48.117188 104.523438 48.15625 104.679688 48.234375 C 104.839844 48.3125 104.96875 48.417969 105.066406 48.554688 C 105.164063 48.6875 105.234375 48.84375 105.273438 49.023438 C 105.316406 49.203125 105.335938 49.394531 105.335938 49.59375 Z M 105.335938 51.824219 "/>
</g>
<path style=" stroke:none;fill-rule:evenodd;fill:rgb(6.272888%,16.479492%,51.367188%);fill-opacity:1;" d="M 85.421875 6.3125 L 85.421875 43.679688 L 80.765625 41.617188 L 80.765625 5.445313 Z M 85.421875 6.3125 "/>
<path style=" stroke:none;fill-rule:evenodd;fill:rgb(6.272888%,16.479492%,51.367188%);fill-opacity:1;" d="M 21.652344 42.734375 L 19.421875 42.078125 L 19.421875 4.777344 C 29.589844 3.289063 37.859375 4.117188 43.953125 7.535156 C 47.585938 9.574219 49.660156 12.390625 50.820313 15.714844 C 49.808594 16.984375 48.828125 18.34375 47.882813 19.789063 C 47.773438 19.957031 47.664063 20.121094 47.550781 20.289063 C 45.378906 10.324219 38.664063 4.207031 21.855469 6.351563 Z M 21.652344 42.734375 "/>
<path style=" stroke:none;fill-rule:evenodd;fill:rgb(55.271912%,52.146912%,73.242188%);fill-opacity:1;" d="M 47.5625 20.273438 C 47.667969 20.113281 47.777344 19.953125 47.882813 19.789063 C 56.867188 6.0625 68.875 -0.0859375 85.933594 6.414063 C 70.132813 3.0625 58.125 9.210938 49.140625 22.9375 C 48.964844 23.207031 48.785156 23.472656 48.605469 23.738281 Z M 47.5625 20.273438 "/>
<path style=" stroke:none;fill-rule:evenodd;fill:rgb(78.90625%,82.421875%,0%);fill-opacity:1;" d="M 19.300781 41.621094 C 35.101563 44.972656 47.113281 38.828125 56.09375 25.101563 C 65.078125 11.371094 77.085938 5.230469 94.148438 11.730469 C 78.34375 8.371094 66.335938 14.523438 57.351563 28.246094 C 48.367188 41.972656 36.359375 48.121094 19.300781 41.621094 Z M 19.300781 41.621094 "/>
<path style=" stroke:none;fill-rule:evenodd;fill:rgb(78.90625%,82.421875%,0%);fill-opacity:1;" d="M 38.136719 25.484375 C 38.941406 26.226563 39.550781 27.03125 39.65625 27.914063 L 39.820313 28.0625 C 40.261719 25.804688 40.503906 24.011719 40.230469 22.457031 C 40.058594 21.402344 39.644531 20.441406 38.90625 19.515625 C 38.765625 19.34375 38.617188 19.160156 38.445313 18.984375 C 38.054688 18.574219 37.589844 18.160156 37.050781 17.742188 C 36.367188 17.222656 35.554688 16.691406 34.601563 16.140625 C 35.042969 17.320313 35.429688 18.492188 35.746094 19.628906 C 35.972656 20.476563 36.167969 21.296875 36.285156 22.105469 C 36.339844 22.449219 36.382813 22.785156 36.417969 23.117188 C 36.445313 23.472656 36.464844 23.824219 36.464844 24.171875 C 37.054688 24.585938 37.632813 25.015625 38.136719 25.484375 Z M 16.074219 12.832031 C 14.738281 13.394531 13.558594 14.144531 12.6875 15.136719 L 12.875 15.265625 C 13.609375 14.761719 14.417969 14.339844 15.277344 13.984375 C 15.550781 13.878906 15.839844 13.773438 16.121094 13.671875 C 17.308594 13.289063 18.59375 13.007813 19.929688 12.847656 C 22.042969 12.589844 24.300781 12.601563 26.535156 12.8125 C 26.636719 12.820313 26.746094 12.835938 26.847656 12.847656 C 26.8125 12.746094 26.773438 12.640625 26.726563 12.53125 C 25.96875 10.660156 25.054688 8.632813 23.570313 7.585938 L 23.289063 7.992188 L 23.246094 11.289063 C 22.441406 11.347656 21.625 11.441406 20.8125 11.570313 C 19.472656 11.777344 18.148438 12.074219 16.929688 12.503906 C 16.644531 12.613281 16.355469 12.71875 16.074219 12.832031 Z M 14.011719 21.40625 C 12.140625 22.289063 10.53125 23.445313 9.230469 24.878906 L 9.425781 25.039063 C 10.453125 24.109375 11.714844 23.328125 13.121094 22.691406 C 15.46875 21.644531 18.21875 21.019531 21.015625 20.789063 C 22.394531 20.683594 23.785156 20.664063 25.136719 20.753906 C 26.527344 20.847656 27.890625 21.046875 29.140625 21.351563 C 28.941406 19.707031 28.601563 18.042969 28.15625 16.386719 C 27.914063 15.515625 27.664063 14.636719 27.371094 13.777344 C 26.894531 13.734375 26.40625 13.707031 25.9375 13.671875 C 24.996094 13.621094 24.082031 13.585938 23.261719 13.617188 L 23.253906 17.554688 L 23.253906 19.195313 C 22.851563 19.222656 22.441406 19.261719 22.042969 19.308594 C 19.011719 19.632813 16.308594 20.324219 14.011719 21.40625 Z M 29.640625 8.320313 C 28.574219 7.84375 27.589844 7.5625 26.769531 7.4375 C 27.621094 7.980469 28.390625 8.53125 29.105469 9.097656 C 30.015625 9.820313 30.835938 10.589844 31.5625 11.460938 C 32.378906 12.410156 33.117188 13.472656 33.804688 14.742188 C 35.035156 15.335938 36.460938 16.152344 37.554688 17.015625 C 38.113281 17.449219 38.585938 17.898438 38.898438 18.328125 C 39.039063 18.503906 39.132813 18.671875 39.210938 18.851563 L 39.324219 18.914063 L 39.433594 18.976563 C 39.425781 18.917969 39.398438 18.871094 39.378906 18.832031 C 39.289063 18.566406 39.1875 18.3125 39.085938 18.058594 C 38.808594 17.394531 38.496094 16.761719 38.15625 16.144531 C 36.648438 13.445313 34.613281 11.417969 32.582031 9.988281 C 31.578125 9.289063 30.578125 8.738281 29.640625 8.320313 Z M 28.703125 9.679688 C 27.492188 8.613281 26.105469 7.730469 24.644531 7.320313 C 25.742188 8.523438 26.632813 10.011719 27.386719 11.578125 C 27.609375 12.054688 27.832031 12.53125 28.039063 13.011719 C 28.742188 13.191406 29.4375 13.363281 30.121094 13.542969 C 30.847656 13.742188 31.582031 13.941406 32.3125 14.121094 C 31.964844 13.519531 31.539063 12.871094 31.039063 12.21875 C 30.378906 11.332031 29.585938 10.460938 28.703125 9.679688 Z M 13.238281 32.035156 C 12.746094 32.414063 12.371094 32.796875 12.125 33.152344 L 12.3125 33.28125 C 12.355469 33.265625 12.394531 33.230469 12.425781 33.207031 C 14.265625 31.949219 16.246094 31.121094 18.289063 30.652344 C 21.523438 29.898438 24.894531 29.992188 28.167969 30.582031 C 28.277344 30.597656 28.390625 30.617188 28.503906 30.648438 C 28.558594 30.394531 28.601563 30.132813 28.648438 29.890625 C 29.132813 27.28125 29.3125 24.734375 29.144531 22.253906 C 27.640625 21.96875 26.1875 21.5625 24.574219 21.566406 C 24.140625 21.570313 23.703125 21.605469 23.242188 21.667969 L 23.246094 23.484375 L 23.265625 28.757813 C 21.890625 28.773438 20.523438 28.976563 19.222656 29.304688 C 16.75 29.921875 14.570313 30.996094 13.238281 32.035156 Z M 29.589844 14.3125 C 29.210938 14.21875 28.84375 14.132813 28.484375 14.054688 C 28.609375 14.492188 28.734375 14.933594 28.851563 15.382813 C 29.371094 17.335938 29.761719 19.386719 30.046875 21.484375 C 31.261719 21.832031 32.441406 22.253906 33.605469 22.722656 C 34.195313 22.957031 34.773438 23.207031 35.355469 23.453125 C 35.386719 23.476563 35.421875 23.488281 35.453125 23.507813 C 35.453125 23.445313 35.441406 23.394531 35.441406 23.328125 C 35.394531 22.417969 35.253906 21.515625 35.050781 20.636719 C 34.65625 18.871094 33.988281 17.15625 33.179688 15.492188 C 32 14.996094 30.761719 14.617188 29.589844 14.3125 Z M 33.105469 23.445313 C 32.183594 23.070313 31.21875 22.757813 30.207031 22.515625 C 30.160156 24.402344 30.082031 26.265625 29.839844 28.164063 C 29.730469 29.058594 29.578125 29.964844 29.382813 30.886719 C 29.621094 30.945313 29.851563 31.011719 30.074219 31.089844 C 30.296875 31.164063 30.519531 31.242188 30.742188 31.320313 C 31.609375 31.660156 32.429688 32.074219 33.214844 32.601563 C 33.335938 32.6875 33.453125 32.765625 33.578125 32.851563 C 33.917969 32.183594 34.199219 31.507813 34.441406 30.828125 C 35.144531 28.878906 35.507813 26.84375 35.484375 24.570313 C 35.464844 24.558594 35.453125 24.546875 35.425781 24.542969 C 35.226563 24.4375 35.023438 24.332031 34.824219 24.222656 C 34.265625 23.941406 33.691406 23.683594 33.105469 23.445313 Z M 27.566406 31.457031 C 26.183594 31.144531 24.722656 31.085938 23.277344 31.019531 L 23.179688 37.789063 L 23.140625 40.3125 C 23.5 40.148438 23.839844 39.917969 24.144531 39.65625 C 25.222656 38.761719 26.101563 37.359375 26.777344 35.851563 C 27.429688 34.445313 27.914063 32.917969 28.238281 31.632813 C 28.027344 31.5625 27.792969 31.503906 27.566406 31.457031 Z M 28.960938 32.695313 C 29.050781 32.4375 29.136719 32.171875 29.214844 31.90625 C 29.300781 31.9375 29.378906 31.957031 29.457031 31.980469 C 29.683594 32.042969 29.910156 32.121094 30.125 32.214844 C 31.019531 32.558594 31.84375 32.988281 32.601563 33.484375 C 32.75 33.582031 32.894531 33.683594 33.050781 33.789063 C 32.128906 35.121094 31.019531 36.484375 29.71875 37.652344 C 28.28125 38.929688 26.625 39.976563 24.773438 40.460938 C 26.164063 38.9375 27.183594 37.167969 27.992188 35.289063 C 28.363281 34.445313 28.675781 33.574219 28.960938 32.695313 Z M 39.324219 18.914063 L 39.433594 18.976563 Z M 36.113281 28.410156 C 36.316406 27.386719 36.421875 26.371094 36.4375 25.324219 C 36.867188 25.589844 37.269531 25.898438 37.625 26.222656 C 38.65625 27.195313 39.339844 28.402344 39.34375 29.636719 C 38.453125 31.746094 37.359375 33.570313 35.789063 35.351563 L 34.363281 33.445313 C 35.222656 31.691406 35.792969 30.042969 36.113281 28.410156 Z M 28.375 39.59375 C 28.027344 39.8125 27.652344 40.039063 27.273438 40.257813 C 27.527344 40.203125 27.777344 40.148438 28.046875 40.070313 C 30.480469 39.4375 33.085938 37.929688 34.972656 36.132813 C 34.675781 35.453125 34.253906 34.824219 33.816406 34.324219 C 32.351563 36.683594 30.546875 38.226563 28.375 39.59375 Z M 28.375 39.59375 "/>
</g>
</svg>
